HIERARCHY
ROOT Hips
{
	OFFSET 0.000000 0.000000 0.000000
	CHANNELS 6 Xposition Yposition Zposition Xrotation Yrotation Zrotation
	JOINT LeftUpLeg_virtual
	{
		OFFSET 0.000000 0.000000 0.000000
		CHANNELS 3 Xrotation Yrotation Zrotation
		JOINT LeftUpLeg
		{
			OFFSET 11.394100 -6.187798 -0.413800
			CHANNELS 3 Xrotation Yrotation Zrotation
			JOINT LeftLeg
			{
				OFFSET 0.430247 -32.302673 3.732800
				CHANNELS 3 Xrotation Yrotation Zrotation
				JOINT LeftFoot
				{
					OFFSET -0.430247 -48.264931 -6.423300
					CHANNELS 3 Xrotation Yrotation Zrotation
					JOINT LeftToeBase
					{
						OFFSET 4.230900 -16.068199 23.438400
						CHANNELS 3 Xrotation Yrotation Zrotation
						JOINT LeftToe_End
						{
							OFFSET 4.510700 0.695400 19.974600
							CHANNELS 3 Xrotation Yrotation Zrotation
							End Site
							{
								OFFSET 0 0 0
							}
						}
					}
				}
			}
		}
	}
	JOINT RightUpLeg_virtual
	{
		OFFSET 0.000000 0.000000 0.000000
		CHANNELS 3 Xrotation Yrotation Zrotation
		JOINT RightUpLeg
		{
			OFFSET -11.333700 -6.187798 -0.413800
			CHANNELS 3 Xrotation Yrotation Zrotation
			JOINT RightLeg
			{
				OFFSET -0.430392 -32.302628 3.733000
				CHANNELS 3 Xrotation Yrotation Zrotation
				JOINT RightFoot
				{
					OFFSET 0.430392 -48.264973 -6.423500
					CHANNELS 3 Xrotation Yrotation Zrotation
					JOINT RightToeBase
					{
						OFFSET -4.230900 -16.068199 23.438400
						CHANNELS 3 Xrotation Yrotation Zrotation
						JOINT RightToe_End
						{
							OFFSET -4.510700 0.695400 19.974600
							CHANNELS 3 Xrotation Yrotation Zrotation
							End Site
							{
								OFFSET 0 0 0
							}
						}
					}
				}
			}
		}
	}
	JOINT Spine_virtual
	{
		OFFSET 0.000000 0.000000 0.000000
		CHANNELS 3 Xrotation Yrotation Zrotation
		JOINT Spine
		{
			OFFSET -0.002400 12.777504 0.315300
			CHANNELS 3 Xrotation Yrotation Zrotation
			JOINT Spine1
			{
				OFFSET -0.002067 5.816869 0.032633
				CHANNELS 3 Xrotation Yrotation Zrotation
				JOINT Spine1_split
				{
					OFFSET -0.002067 5.816869 0.032633
					CHANNELS 3 Xrotation Yrotation Zrotation
					JOINT Spine2
					{
						OFFSET -0.002067 5.816869 0.032633
						CHANNELS 3 Xrotation Yrotation Zrotation
						JOINT Neck_virtual
						{
							OFFSET 0.000000 0.000000 0.000000
							CHANNELS 3 Xrotation Yrotation Zrotation
							JOINT Neck
							{
								OFFSET -0.003700 21.199493 -0.826900
								CHANNELS 3 Xrotation Yrotation Zrotation
								JOINT Head
								{
									OFFSET 0.000000 20.442200 4.834800
									CHANNELS 3 Xrotation Yrotation Zrotation
									JOINT HeadTop_End
									{
										OFFSET 0.000000 34.668396 4.968400
										CHANNELS 3 Xrotation Yrotation Zrotation
										End Site
										{
											OFFSET 0 0 0
										}
									}
								}
							}
						}
						JOINT LeftShoulder_virtual
						{
							OFFSET 0.000000 0.000000 0.000000
							CHANNELS 3 Xrotation Yrotation Zrotation
							JOINT LeftShoulder
							{
								OFFSET 3.288150 8.794197 -1.372250
								CHANNELS 3 Xrotation Yrotation Zrotation
								JOINT LeftShoulder_split
								{
									OFFSET 3.288150 8.794197 -1.372250
									CHANNELS 3 Xrotation Yrotation Zrotation
									JOINT LeftArm
									{
										OFFSET 11.953299 -2.279007 -0.146200
										CHANNELS 3 Xrotation Yrotation Zrotation
										JOINT LeftForeArm
										{
											OFFSET 18.448900 0.000000 0.000000
											CHANNELS 3 Xrotation Yrotation Zrotation
											JOINT LeftHand
											{
												OFFSET 29.527798 0.000000 0.000000
												CHANNELS 3 Xrotation Yrotation Zrotation
												End Site
												{
													OFFSET 0 0 0
												}
											}
										}
									}
								}
							}
						}
						JOINT RightShoulder_virtual
						{
							OFFSET 0.000000 0.000000 0.000000
							CHANNELS 3 Xrotation Yrotation Zrotation
							JOINT RightShoulder
							{
								OFFSET -3.249400 8.794197 -1.372250
								CHANNELS 3 Xrotation Yrotation Zrotation
								JOINT RightShoulder_split
								{
									OFFSET -3.249400 8.794197 -1.372250
									CHANNELS 3 Xrotation Yrotation Zrotation
									JOINT RightArm
									{
										OFFSET -11.953299 -2.279007 -0.146200
										CHANNELS 3 Xrotation Yrotation Zrotation
										JOINT RightForeArm
										{
											OFFSET -18.448900 0.000000 0.000000
											CHANNELS 3 Xrotation Yrotation Zrotation
											JOINT RightHand
											{
												OFFSET -29.527802 0.000000 0.000000
												CHANNELS 3 Xrotation Yrotation Zrotation
												End Site
												{
													OFFSET 0 0 0
												}
											}
										}
									}
								}
							}
						}
					}
				}
			}
		}
	}
}
MOTION
Frames: 5
Frame Time: 0.03333333
7.863348 98.628189 12.037376 0.000000 0.000000 0.000000 -1.365087 9.216241 -5.533325 1.743023 10.499478 10.799354 18.368455 -3.771005 0.215071 -19.393875 2.956304 1.503341 -2.198101 -0.713212 -0.460805 0.000000 0.000000 0.000000 -0.559923 8.577206 -5.729447 -45.999637 -6.942465 -4.106305 33.692948 -2.272600 -2.092694 12.153207 4.476694 4.572953 1.962289 1.059083 1.514889 0.000000 0.000000 0.000000 -0.656184 7.963697 -5.460675 11.851235 -0.960184 3.645316 0.638055 -1.718746 0.884124 0.886237 -0.978347 0.497799 0.000000 0.000000 0.000000 -3.098319 -1.400816 1.043791 -0.709675 -0.160726 5.335655 -3.787239 0.143039 -4.690827 0.000000 0.000000 0.000000 -3.301964 -1.603354 0.944548 0.859443 -1.190855 -3.572469 -1.289759 -0.218225 0.096491 -0.661880 -10.280672 -74.409727 10.508150 -13.245180 -3.299425 0.000000 0.000000 0.000000 -3.339386 -1.862688 1.012369 2.327796 -0.398541 7.990148 -2.520810 0.881474 -2.031831 1.964458 10.651792 71.402511 11.097060 19.215697 3.171519 0.000000 0.000000 0.000000 
8.027866 98.039703 14.107449 0.000000 0.000000 0.000000 -1.177501 9.946168 -5.874332 3.963658 10.298301 10.719749 17.786279 -4.494014 0.591439 -20.737578 3.362680 1.137734 -3.302814 -0.880580 -0.419247 0.000000 0.000000 0.000000 -0.105654 9.108544 -6.146404 -47.468015 -6.614807 -3.724001 27.783220 -0.685353 -2.470857 13.762803 5.477973 5.685505 2.995171 -0.192911 0.447172 0.000000 0.000000 0.000000 -0.360064 8.314271 -5.743433 11.891766 -1.156669 3.851494 0.419398 -1.910255 0.991947 0.817449 -1.016662 0.513480 0.000000 0.000000 0.000000 -3.210505 -1.535515 1.159445 -0.964904 -0.325415 5.158751 -4.117351 -0.003657 -5.383598 0.000000 0.000000 0.000000 -3.477526 -1.703055 0.941250 0.879514 -1.302836 -3.450416 -1.259421 0.037042 0.201793 -1.119533 -10.769824 -74.306420 10.714664 -13.899085 -3.709448 0.000000 0.000000 0.000000 -3.358561 -1.932009 1.104100 2.445879 -1.201346 7.944666 -2.539114 0.642477 -2.242826 1.905783 11.108399 71.315282 10.791906 18.697684 4.079843 0.000000 0.000000 0.000000 
8.100348 97.442917 16.209610 0.000000 0.000000 0.000000 -0.972030 10.695163 -6.128421 6.073203 9.555348 10.832477 17.157270 -5.163690 1.012370 -21.582723 4.019333 0.751716 -3.884802 -1.048611 -0.681574 0.000000 0.000000 0.000000 0.242010 9.976149 -6.520549 -48.781320 -6.216891 -3.526028 22.831929 0.722379 -2.652086 15.903150 6.312982 6.125511 3.074048 -1.457138 -0.303304 0.000000 0.000000 0.000000 -0.087846 8.664562 -6.008395 12.149103 -1.514407 3.893159 0.173135 -2.189946 1.235696 0.619966 -0.904205 0.508876 0.000000 0.000000 0.000000 -3.326615 -1.778156 1.416138 -1.434448 -0.475437 4.796838 -4.554648 -0.277684 -5.989970 0.000000 0.000000 0.000000 -3.689819 -1.897071 1.089718 0.886687 -1.479708 -3.592038 -1.307955 0.398015 0.140581 -1.222326 -11.394662 -73.969221 10.840583 -14.416065 -4.159517 0.000000 0.000000 0.000000 -3.459476 -2.115568 1.317214 2.545781 -1.904009 7.682988 -2.536296 0.589332 -2.355115 2.054216 11.693686 71.514321 10.425091 18.531907 4.720646 0.000000 0.000000 0.000000 
8.079193 96.829918 18.357487 0.000000 0.000000 0.000000 -0.773647 11.408187 -6.339029 8.227739 8.475736 11.184106 16.310051 -5.653465 1.473933 -22.310772 4.898007 0.374404 -3.626699 -1.227143 -1.124455 0.000000 0.000000 0.000000 0.397156 10.915068 -6.831697 -50.145142 -5.881982 -3.539284 19.193439 1.584607 -2.660792 18.111889 6.658891 5.570208 3.069577 -2.516039 -0.576198 0.000000 0.000000 0.000000 0.137147 8.871921 -6.261216 12.562526 -1.925068 3.815749 -0.094657 -2.512278 1.542152 0.483069 -0.612171 0.469847 0.000000 0.000000 0.000000 -3.422269 -2.085035 1.730227 -2.124933 -0.627343 4.380355 -5.083682 -0.649649 -6.462154 0.000000 0.000000 0.000000 -3.909015 -2.153118 1.330396 0.880340 -1.668023 -3.927666 -1.398883 0.683135 0.051714 -1.059519 -12.165641 -73.457038 10.884772 -14.937940 -4.592147 0.000000 0.000000 0.000000 -3.602302 -2.379766 1.579287 2.603605 -2.470835 7.290263 -2.493389 0.737213 -2.309030 2.386920 12.315047 71.950319 9.998756 18.649980 5.137410 0.000000 0.000000 0.000000 
7.977702 96.137291 20.587948 0.000000 0.000000 0.000000 -0.604907 12.119909 -6.525301 10.377466 7.499770 11.805536 15.076499 -6.206506 1.882767 -22.902903 5.824520 -0.692484 -3.632921 -1.465212 -1.131656 0.000000 0.000000 0.000000 0.399901 11.737991 -7.059295 -51.569755 -5.664115 -3.757498 17.244735 1.902635 -2.537348 20.313625 6.528607 4.248867 3.337899 -3.164445 -0.474647 0.000000 0.000000 0.000000 0.199998 8.949681 -6.427728 13.082659 -2.277205 3.700540 -0.378627 -2.807254 1.826215 0.387060 -0.044419 0.297757 0.000000 0.000000 0.000000 -3.507260 -2.390868 2.000863 -2.969915 -0.768824 4.026190 -5.629876 -1.056940 -6.786850 0.000000 0.000000 0.000000 -4.105400 -2.404604 1.570645 0.870807 -1.788510 -4.365295 -1.521592 0.628136 -0.027884 -0.765118 -12.997367 -72.881417 10.872350 -15.588254 -4.947929 0.000000 0.000000 0.000000 -3.738421 -2.647844 1.799059 2.635607 -2.882108 6.892694 -2.383154 1.049123 -2.075967 2.740889 12.804344 72.507348 9.526087 18.908848 5.403796 0.000000 0.000000 0.000000 
